<svg width="60" height="60" viewBox="0 0 60 60" fill="none" xmlns="http://www.w3.org/2000/svg">
<path d="M4.98477 34.345C5.6771 34.345 6.16173 34.0681 6.43866 33.5142C6.71559 32.9604 6.71559 32.4065 6.43866 31.8526C6.16173 31.2988 5.6771 31.0218 4.98477 31.0218C4.29244 31.0218 3.80781 31.2988 3.53088 31.8526C3.25395 32.4065 3.25395 32.9604 3.53088 33.5142C3.80781 34.0681 4.29244 34.345 4.98477 34.345ZM43.2273 32.8392C43.0542 32.6142 42.721 32.1815 42.2277 31.5411C41.7345 30.9007 41.3753 30.4334 41.1503 30.1391C40.9253 29.8449 40.5964 29.4208 40.1637 28.867C39.731 28.3131 39.3632 27.8544 39.0603 27.491C38.7574 27.1275 38.4069 26.7207 38.0089 26.2707C37.6108 25.8207 37.2213 25.3967 36.8406 24.9986L33.5953 28.6333C32.1587 30.2603 30.3543 31.0565 28.1821 31.0218C26.0099 30.9872 24.2315 30.1391 22.8469 28.4775C21.8603 27.2833 21.3713 25.9159 21.38 24.3755C21.3886 22.835 21.8949 21.4764 22.8988 20.2994L27.4941 14.9512C27.1133 14.7608 26.672 14.618 26.17 14.5228C25.6681 14.4276 25.257 14.3757 24.9368 14.367C24.6166 14.3583 24.1277 14.3627 23.47 14.38C22.8122 14.3973 22.3882 14.4059 22.1978 14.4059C20.6054 14.4059 19.2381 14.9771 18.0957 16.1195L13.9937 20.2215H9.96954V34.345C10.0561 34.345 10.2378 34.3407 10.5147 34.332C10.7917 34.3234 10.9821 34.3234 11.0859 34.332C11.1898 34.3407 11.3585 34.358 11.5922 34.384C11.8258 34.4099 12.0033 34.4489 12.1244 34.5008C12.2456 34.5527 12.397 34.6263 12.5788 34.7215C12.7605 34.8167 12.9206 34.9335 13.0591 35.072L20.7699 42.653C22.7603 44.5742 24.7248 45.5348 26.6633 45.5348C28.0134 45.5348 29.0951 45.128 29.9086 44.3146C30.8952 44.6607 31.8688 44.5915 32.8294 44.1069C33.79 43.6222 34.4174 42.8866 34.7116 41.9001C35.9925 42.0039 37.0915 41.6231 38.0089 40.7577C38.355 40.4462 38.6666 40.0524 38.9435 39.5764C39.2204 39.1004 39.3416 38.6634 39.307 38.2653C39.4801 38.4384 39.8522 38.525 40.4234 38.525C41.1676 38.525 41.834 38.3432 42.4225 37.9797C43.0109 37.6163 43.4393 37.1576 43.7076 36.6037C43.9759 36.0499 44.0797 35.4311 44.0191 34.7474C43.9586 34.0638 43.6946 33.4277 43.2273 32.8392ZM47.3553 34.345H49.8477V21.0523H47.4332L43.3571 16.3791C42.2148 15.0637 40.7522 14.4059 38.9695 14.4059H34.6338C33.0933 14.4059 31.8298 14.9858 30.8433 16.1454L25.4171 22.4543C24.9325 23.0254 24.6902 23.6745 24.6902 24.4014C24.6902 25.1284 24.9238 25.7774 25.3912 26.3486C26.1354 27.2313 27.0874 27.6814 28.247 27.6987C29.4067 27.716 30.3673 27.2919 31.1288 26.4265L36.1396 20.7667C36.5723 20.3686 37.0353 20.1826 37.5286 20.2085C38.0218 20.2345 38.4286 20.4681 38.7488 20.9095C39.069 21.3509 39.1425 21.8398 38.9695 22.3764C39.2464 22.7052 39.731 23.2504 40.4234 24.012C41.1157 24.7736 41.6349 25.362 41.9811 25.7774C42.483 26.4005 43.197 27.3136 44.123 28.5165C45.049 29.7194 45.6072 30.4507 45.7976 30.7103C46.6976 31.8526 47.2168 33.0642 47.3553 34.345ZM54.8325 34.345C55.5248 34.345 56.0094 34.0681 56.2863 33.5142C56.5633 32.9604 56.5633 32.4065 56.2863 31.8526C56.0094 31.2988 55.5248 31.0218 54.8325 31.0218C54.1401 31.0218 53.6555 31.2988 53.3786 31.8526C53.1016 32.4065 53.1016 32.9604 53.3786 33.5142C53.6555 34.0681 54.1401 34.345 54.8325 34.345ZM59.8172 19.3907V36.0066C59.8172 36.4566 59.6528 36.8461 59.3239 37.1749C58.9951 37.5038 58.6056 37.6682 58.1556 37.6682H46.888C46.4207 38.7932 45.711 39.7149 44.7591 40.4332C43.8071 41.1515 42.7253 41.5972 41.5138 41.7702C40.9426 42.601 40.2459 43.3063 39.4238 43.8862C38.6017 44.466 37.7146 44.8598 36.7627 45.0675C36.0357 45.9848 35.1314 46.6901 34.0496 47.1834C32.9678 47.6767 31.8558 47.8887 30.7134 47.8195C29.6749 48.4079 28.5845 48.7498 27.4422 48.845C26.2998 48.9402 25.1964 48.819 24.132 48.4815C23.0675 48.144 22.055 47.681 21.0944 47.0925C20.1338 46.504 19.2381 45.8031 18.4073 44.9896L10.9561 37.6682H1.66159C1.21158 37.6682 0.822141 37.5038 0.493284 37.1749C0.164428 36.8461 0 36.4566 0 36.0066V18.5599C0 18.1099 0.164428 17.7205 0.493284 17.3916C0.822141 17.0628 1.21158 16.8983 1.66159 16.8983H12.5917C12.834 16.656 13.2408 16.2406 13.812 15.6521C14.3831 15.0637 14.7942 14.6483 15.0452 14.4059C15.2961 14.1636 15.6769 13.8175 16.1875 13.3674C16.6981 12.9174 17.1351 12.5929 17.4986 12.3939C17.8621 12.1948 18.3034 11.9741 18.8227 11.7318C19.3419 11.4895 19.8785 11.3208 20.4324 11.2256C20.9862 11.1304 21.5747 11.0828 22.1978 11.0828H25.2354C26.9489 11.0828 28.5153 11.5674 29.9346 12.5367C31.3538 11.5674 32.9202 11.0828 34.6338 11.0828H38.9695C39.5753 11.0828 40.1551 11.1347 40.7089 11.2385C41.2628 11.3424 41.7518 11.4679 42.1758 11.615C42.5999 11.7621 43.0456 11.9914 43.5129 12.303C43.9802 12.6145 44.3653 12.8828 44.6682 13.1078C44.9711 13.3328 45.3432 13.6747 45.7846 14.1333C46.2259 14.592 46.5634 14.9555 46.7971 15.2238C47.0308 15.492 47.3856 15.9074 47.8616 16.4699C48.3375 17.0325 48.6967 17.4522 48.939 17.7291H58.1556C58.6056 17.7291 58.9951 17.8935 59.3239 18.2224C59.6528 18.5513 59.8172 18.9407 59.8172 19.3907Z" fill="#003C6E"/>
</svg>
