<svg width="60" height="60" viewBox="0 0 60 60" fill="none" xmlns="http://www.w3.org/2000/svg">
<path d="M13.1556 1C12.5175 1 12.0001 1.51734 12.0001 2.1555C12.0001 14.7646 16.7907 25.6104 24.0955 29.623V30.3767C16.7905 34.3894 12 45.2351 12 57.8444C12 58.4826 12.5174 59 13.1556 59H46.8441C47.4824 59 47.9997 58.4826 47.9997 57.8444C47.9997 45.1612 43.1281 34.3121 35.7554 30.3651V29.6347C43.1276 25.6873 47.9997 14.8381 47.9997 2.15538C47.9997 1.51728 47.4825 1 46.8444 1H13.1556ZM14.3776 3.31088H45.6226C45.3116 15.2388 40.2565 25.0188 34.0802 27.9107L33.4094 28.2239V31.7797L34.0803 32.0926C40.2563 34.9845 45.3111 44.7617 45.6226 56.6887H14.3776C14.6859 44.8285 19.6661 35.0358 25.7865 32.0849L26.4456 31.7681V28.2317L25.7865 27.9148C19.6664 24.9639 14.6858 15.1711 14.3776 3.31088ZM41.201 13.9625C33.9687 17.4019 25.5674 17.4056 18.909 14.4689C20.7487 20.7646 24.4099 25.2457 28.7173 25.9862C28.5163 26.2477 28.4074 26.5666 28.4072 26.8945C28.4072 27.7305 29.0962 28.4095 29.9451 28.4095C30.7941 28.4095 31.4831 27.7305 31.4831 26.8945C31.4831 26.5581 31.3692 26.2492 31.181 25.9979C35.6286 25.2706 39.4027 20.5473 41.201 13.9625ZM29.9451 30.2686C29.0962 30.2686 28.4072 30.9474 28.4072 31.7837C28.4072 32.6199 29.0962 33.2987 29.9451 33.2987C30.7941 33.2987 31.4831 32.6199 31.4831 31.7837C31.4831 30.9474 30.7941 30.2686 29.9451 30.2686ZM29.9451 35.1266C29.0962 35.1266 28.4072 35.8056 28.4072 36.6416C28.4072 37.4781 29.0962 38.1567 29.9451 38.1567C30.7941 38.1567 31.4831 37.4781 31.4831 36.6416C31.4831 35.8056 30.7941 35.1266 29.9451 35.1266ZM29.9451 40.0159C29.0962 40.0159 28.4072 40.6946 28.4072 41.5309C28.4072 42.367 29.0962 43.0459 29.9451 43.0459C30.7941 43.0459 31.4831 42.367 31.4831 41.5309C31.4831 40.6946 30.7941 40.0159 29.9451 40.0159ZM29.9608 44.9513C27.0469 44.9859 24.1619 48.1384 20.4429 54.3081H39.6513C35.8193 48.0003 32.8747 44.9167 29.9608 44.9513Z" fill="#003C6E"/>
</svg>
