<svg width="60" height="60" viewBox="0 0 60 60" fill="none" xmlns="http://www.w3.org/2000/svg">
<path d="M30.574 12.8575C30.5251 12.7511 30.4466 12.6609 30.348 12.5977C30.2493 12.5345 30.1347 12.5009 30.0175 12.5009C29.9003 12.5009 29.7856 12.5345 29.687 12.5977C29.5884 12.6609 29.5099 12.7511 29.461 12.8575L26.955 18.293C26.911 18.3877 26.8435 18.4695 26.759 18.5308C26.6745 18.592 26.5757 18.6307 26.472 18.643L20.5255 19.35C20.4095 19.3641 20.3 19.411 20.2099 19.4852C20.1197 19.5594 20.0526 19.6579 20.0166 19.769C19.9805 19.8801 19.977 19.9992 20.0064 20.1122C20.0358 20.2253 20.0969 20.3276 20.1825 20.407L24.5785 24.4705C24.6558 24.5417 24.7134 24.6316 24.7459 24.7315C24.7784 24.8314 24.7846 24.938 24.764 25.041L23.595 30.9105C23.5721 31.0253 23.5826 31.1442 23.6251 31.2532C23.6677 31.3623 23.7407 31.4568 23.8353 31.5256C23.9299 31.5945 24.0423 31.6348 24.1591 31.6418C24.276 31.6488 24.3923 31.6221 24.4945 31.565L29.72 28.6425C29.811 28.592 29.9134 28.5654 30.0175 28.5654C30.1216 28.5654 30.224 28.592 30.315 28.6425L35.5405 31.565C35.9955 31.8205 36.5415 31.425 36.44 30.9105L35.2745 25.041C35.2539 24.938 35.2601 24.8314 35.2926 24.7315C35.3251 24.6316 35.3827 24.5417 35.46 24.4705L39.8525 20.407C39.9381 20.3276 39.9992 20.2253 40.0286 20.1122C40.058 19.9992 40.0545 19.8801 40.0184 19.769C39.9824 19.6579 39.9153 19.5594 39.8251 19.4852C39.735 19.411 39.6254 19.3641 39.5095 19.35L33.5665 18.643C33.4622 18.6312 33.3627 18.5929 33.2775 18.5316C33.1923 18.4703 33.1243 18.3881 33.08 18.293L30.574 12.8575ZM51 23.0005C51.0032 25.9556 50.3812 28.8779 49.1748 31.5755C47.9683 34.2731 46.2048 36.6849 44 38.6525V56.2506C43.9999 56.557 43.9193 56.8581 43.7663 57.1236C43.6133 57.3892 43.3933 57.6099 43.1282 57.7637C42.8632 57.9175 42.5624 57.999 42.2559 58C41.9495 58.001 41.6481 57.9216 41.382 57.7696L30 51.2666L18.618 57.7696C18.3519 57.9216 18.0505 58.001 17.7441 58C17.4376 57.999 17.1368 57.9175 16.8718 57.7637C16.6067 57.6099 16.3866 57.3892 16.2337 57.1236C16.0807 56.8581 16.0001 56.557 16 56.2506V38.6525C13.3891 36.3172 11.4038 33.3659 10.2249 30.0672C9.04604 26.7686 8.71106 23.2275 9.25047 19.7663C9.78988 16.3051 11.1865 13.0339 13.3133 10.2504C15.44 7.46691 18.2292 5.25966 21.427 3.82962C24.6248 2.39958 28.1295 1.79218 31.6219 2.06273C35.1144 2.33329 38.4838 3.4732 41.4231 5.37866C44.3625 7.28413 46.7785 9.89462 48.4512 12.9724C50.1239 16.0502 51.0001 19.4976 51 23.0005ZM30 44.0005C26.3134 44.0059 22.691 43.0363 19.5 41.19V53.2371L29.132 47.7315C29.3964 47.5805 29.6955 47.5011 30 47.5011C30.3045 47.5011 30.6036 47.5805 30.868 47.7315L40.5 53.2406V41.1935C37.3088 43.0387 33.6863 44.0071 30 44.0005ZM30 40.5005C34.6413 40.5005 39.0925 38.6568 42.3744 35.3749C45.6562 32.093 47.5 27.6418 47.5 23.0005C47.5 18.3592 45.6562 13.908 42.3744 10.6261C39.0925 7.34423 34.6413 5.50049 30 5.50049C25.3587 5.50049 20.9075 7.34423 17.6256 10.6261C14.3437 13.908 12.5 18.3592 12.5 23.0005C12.5 27.6418 14.3437 32.093 17.6256 35.3749C20.9075 38.6568 25.3587 40.5005 30 40.5005Z" fill="#003C6E"/>
</svg>
