<svg width="60" height="60" viewBox="0 0 60 60" fill="none" xmlns="http://www.w3.org/2000/svg">
<path d="M15 25H25" stroke="#003C6E" stroke-width="3.5" stroke-linecap="round" stroke-linejoin="round"/>
<path d="M52.0825 27.5H45.5775C41.115 27.5 37.5 30.8575 37.5 35C37.5 39.1425 41.1175 42.5 45.575 42.5H52.0825C52.2925 42.5 52.395 42.5 52.4825 42.495C53.8325 42.4125 54.9075 41.415 54.995 40.1625C55 40.0825 55 39.985 55 39.7925V30.2075C55 30.015 55 29.9175 54.995 29.8375C54.905 28.585 53.8325 27.5875 52.4825 27.505C52.395 27.5 52.2925 27.5 52.0825 27.5Z" stroke="#003C6E" stroke-width="3.5"/>
<path d="M52.4125 27.5C52.2175 22.82 51.5925 19.95 49.57 17.93C46.6425 15 41.9275 15 32.5 15H25C15.5725 15 10.8575 15 7.93 17.93C5 20.8575 5 25.5725 5 35C5 44.4275 5 49.1425 7.93 52.07C10.8575 55 15.5725 55 25 55H32.5C41.9275 55 46.6425 55 49.57 52.07C51.5925 50.05 52.22 47.18 52.4125 42.5" stroke="#003C6E" stroke-width="3.5"/>
<path d="M15 15L24.3375 8.80747C25.6507 7.95332 27.1835 7.49866 28.75 7.49866C30.3165 7.49866 31.8493 7.95332 33.1625 8.80747L42.5 15" stroke="#003C6E" stroke-width="3.5" stroke-linecap="round"/>
<path d="M44.9766 35H45.0016" stroke="#003C6E" stroke-width="4" stroke-linecap="round" stroke-linejoin="round"/>
</svg>
